<?xml version="1.0" encoding="utf-8"?>
<!-- Generator: Adobe Illustrator 26.4.1, SVG Export Plug-In . SVG Version: 6.00 Build 0)  -->
<svg version="1.1" id="Layer_1" xmlns="http://www.w3.org/2000/svg" xmlns:xlink="http://www.w3.org/1999/xlink" x="0px" y="0px"
	 viewBox="0 0 595.28 841.89" style="enable-background:new 0 0 595.28 841.89;" xml:space="preserve">
<style type="text/css">
	.st0{fill:none;}
	.st1{fill:#339345;}
</style>
<rect x="102.24" y="158.13" class="st0" width="416.87" height="471.08"/>
<rect x="102.24" y="113.55" class="st1" width="63.62" height="400"/>
<circle class="st1" cx="134.05" cy="572.81" r="31.81"/>
<path class="st1" d="M285.99,338.55c0.8-0.82,1.94-1.36,3.43-1.36c1.56,0,2.73,0.59,3.54,1.47l28.51-21.61L167.22,113.55
	l-45.97,34.84l144,189.98h19.41C285.15,338.37,285.58,338.44,285.99,338.55z"/>
<rect x="408.16" y="113.55" transform="matrix(-1 -4.489177e-11 4.489177e-11 -1 879.9271 627.1085)" class="st1" width="63.62" height="400"/>
<circle class="st1" cx="439.96" cy="572.81" r="31.81"/>
<path class="st1" d="M282.28,337.18c9.44-0.06,18.83-1.01,28.26-1.16L452.76,148.4l-45.97-34.84L252.54,317.05l27.35,20.73
	C280.55,337.41,281.35,337.19,282.28,337.18z"/>
</svg>
